<?xml version="1.0" standalone="no"?>
<!DOCTYPE svg PUBLIC "-//W3C//DTD SVG 20010904//EN"
 "http://www.w3.org/TR/2001/REC-SVG-20010904/DTD/svg10.dtd">
<svg version="1.0" xmlns="http://www.w3.org/2000/svg"
 width="64.000000pt" height="64.000000pt" viewBox="0 0 64.000000 64.000000"
 preserveAspectRatio="xMidYMid meet">
<metadata>
Created by potrace 1.16, written by Peter Selinger 2001-2019
</metadata>
<g transform="translate(0.000000,64.000000) scale(0.100000,-0.100000)"
fill="#000000" stroke="none">
<path d="M230 607 c0 -29 -68 -97 -98 -97 -15 0 -22 -6 -22 -20 0 -13 -7 -20
-18 -20 -38 0 -42 -18 -42 -192 0 -161 -1 -168 -20 -168 -16 0 -20 -7 -20 -38
0 -21 5 -43 12 -50 17 -17 579 -17 596 0 7 7 12 29 12 50 0 31 -4 38 -20 38
-19 0 -20 7 -20 168 0 117 -4 172 -12 180 -7 7 -43 12 -90 12 -68 0 -78 2 -78
18 0 10 -28 46 -63 80 -46 45 -70 62 -90 62 -22 0 -27 -5 -27 -23z m-25 -237
c29 -30 35 -40 22 -40 -48 0 -97 -51 -97 -100 0 -51 49 -100 100 -100 52 0
100 49 100 101 0 32 -28 77 -52 84 -19 7 -19 8 -5 17 10 5 17 21 17 36 0 25 5
21 73 -46 72 -72 93 -82 115 -60 21 21 13 41 -40 95 l-52 53 72 0 72 0 0 -150
0 -150 -210 0 -210 0 0 150 0 150 28 0 c19 0 40 -12 67 -40z m71 -83 c19 -17
27 -33 27 -56 0 -70 -84 -101 -130 -47 -26 30 -28 44 -12 80 22 47 74 58 115
23z"/>
<path d="M363 210 c-3 -11 -9 -20 -14 -20 -5 0 -9 -13 -9 -30 l0 -30 90 0 90
0 0 30 c0 17 -4 30 -9 30 -5 0 -11 9 -14 20 -4 17 -14 20 -67 20 -53 0 -63 -3
-67 -20z"/>
</g>
</svg>
